<svg width="16" height="16" viewBox="0 0 16 16" fill="none" xmlns="http://www.w3.org/2000/svg">
<mask id="mask0_4217_270" style="mask-type:alpha" maskUnits="userSpaceOnUse" x="0" y="0" width="16" height="16">
<rect width="16" height="16" fill="#D9D9D9"/>
</mask>
<g mask="url(#mask0_4217_270)">
<path d="M4.22146 13C3.9511 13 3.72257 12.9049 3.53589 12.7147C3.3492 12.5245 3.25586 12.2978 3.25586 12.0344V4.47624C3.25586 4.21288 3.3492 3.98611 3.53589 3.79592C3.72257 3.60573 3.9511 3.51064 4.22146 3.51064H5.53346V2H6.33735V3.51064H9.68685V2H10.4676V3.51064H11.7796C12.05 3.51064 12.2785 3.60573 12.4652 3.79592C12.6519 3.98611 12.7452 4.21288 12.7452 4.47624V12.0344C12.7452 12.2978 12.6519 12.5245 12.4652 12.7147C12.2785 12.9049 12.05 13 11.7796 13H4.22146ZM4.22146 12.2192H11.7796C11.8259 12.2192 11.8682 12.2 11.9066 12.1614C11.9452 12.123 11.9644 12.0806 11.9644 12.0344V6.99873H4.03663V12.0344C4.03663 12.0806 4.0559 12.123 4.09444 12.1614C4.13287 12.2 4.17522 12.2192 4.22146 12.2192ZM4.03663 6.21796H11.9644V4.47624C11.9644 4.43 11.9452 4.38765 11.9066 4.34922C11.8682 4.31068 11.8259 4.29141 11.7796 4.29141H10.4676H9.68685H6.33735H5.53346H4.22146C4.17522 4.29141 4.13287 4.31068 4.09444 4.34922C4.0559 4.38765 4.03663 4.43 4.03663 4.47624V6.21796Z" fill="#FEFFFF"/>
<path d="M6.33735 4.29141H5.53346V4.83199H6.33735V4.29141Z" fill="#FEFFFF"/>
<path d="M9.68685 4.29141V4.83199H10.4676V4.29141H9.68685Z" fill="#FEFFFF"/>
</g>
</svg>
