<svg width="46" height="46" viewBox="0 0 46 46" fill="none" xmlns="http://www.w3.org/2000/svg">
<rect x="0.375" y="0.375" width="45.25" height="45.25" rx="17.625" fill="#F5F5F5"/>
<rect x="0.375" y="0.375" width="45.25" height="45.25" rx="17.625" stroke="#DBDCDF" stroke-width="0.75"/>
<mask id="mask0_4285_2477" style="mask-type:alpha" maskUnits="userSpaceOnUse" x="5" y="5" width="36" height="36">
<rect x="5" y="5" width="36" height="36" fill="#D9D9D9"/>
</mask>
<g mask="url(#mask0_4285_2477)">
<path d="M12.3481 25.8111C11.5469 25.8111 10.8719 25.5351 10.3231 24.9831C9.77437 24.4309 9.5 23.7576 9.5 22.9634C9.5 22.1689 9.77612 21.4955 10.3284 20.9433C10.8804 20.3913 11.5536 20.1153 12.3481 20.1153V16.0401C12.3481 15.4496 12.5659 14.9366 13.0014 14.5011C13.4369 14.0656 13.9499 13.8479 14.5404 13.8479H20.1519C20.1519 13.0466 20.4262 12.3716 20.975 11.8229C21.5237 11.2741 22.1987 10.9998 23 10.9998C23.8012 10.9998 24.4762 11.2759 25.025 11.8281C25.5737 12.3801 25.8481 13.0534 25.8481 13.8479H31.4596C32.0501 13.8479 32.5631 14.0656 32.9986 14.5011C33.4341 14.9366 33.6519 15.4496 33.6519 16.0401V20.1153C34.4531 20.1153 35.1281 20.3913 35.6769 20.9433C36.2256 21.4955 36.5 22.1689 36.5 22.9634C36.5 23.7576 36.2239 24.4309 35.6716 24.9831C35.1196 25.5351 34.4464 25.8111 33.6519 25.8111V32.8075C33.6519 33.3978 33.4341 33.9108 32.9986 34.3465C32.5631 34.782 32.0501 34.9998 31.4596 34.9998H14.5404C13.9499 34.9998 13.4369 34.782 13.0014 34.3465C12.5659 33.9108 12.3481 33.3978 12.3481 32.8075V25.8111ZM19.208 22.9589C19.4528 22.7111 19.5751 22.4104 19.5751 22.0566C19.5751 21.7026 19.4513 21.4034 19.2035 21.1589C18.9558 20.9144 18.6549 20.7921 18.3009 20.7921C17.9471 20.7921 17.648 20.916 17.4035 21.1638C17.1588 21.4115 17.0364 21.7123 17.0364 22.066C17.0364 22.42 17.1603 22.7193 17.408 22.9638C17.6558 23.2083 17.9566 23.3305 18.3106 23.3305C18.6644 23.3305 18.9635 23.2066 19.208 22.9589ZM28.5965 22.9589C28.8412 22.7111 28.9636 22.4104 28.9636 22.0566C28.9636 21.7026 28.8397 21.4034 28.592 21.1589C28.3442 20.9144 28.0434 20.7921 27.6894 20.7921C27.3356 20.7921 27.0365 20.916 26.792 21.1638C26.5472 21.4115 26.4249 21.7123 26.4249 22.066C26.4249 22.42 26.5487 22.7193 26.7965 22.9638C27.0443 23.2083 27.3451 23.3305 27.6991 23.3305C28.0529 23.3305 28.352 23.2066 28.5965 22.9589ZM17.6652 29.6826H28.3348V28.4133H17.6652V29.6826ZM14.5404 33.7304H31.4596C31.7161 33.7304 31.9341 33.6439 32.1136 33.4709C32.2931 33.2979 32.3829 33.0768 32.3829 32.8075V16.0401C32.3829 15.7836 32.2931 15.5656 32.1136 15.3861C31.9341 15.2066 31.7161 15.1169 31.4596 15.1169H14.5404C14.2839 15.1169 14.0659 15.2066 13.8864 15.3861C13.7069 15.5656 13.6171 15.7836 13.6171 16.0401V32.8075C13.6171 33.0768 13.7069 33.2979 13.8864 33.4709C14.0659 33.6439 14.2839 33.7304 14.5404 33.7304Z" fill="#AEB0B6"/>
</g>
</svg>
