<svg width="36" height="36" viewBox="0 0 36 36" fill="none" xmlns="http://www.w3.org/2000/svg">
<mask id="mask0_21_5632" style="mask-type:alpha" maskUnits="userSpaceOnUse" x="1" y="1" width="34" height="34">
<rect x="1" y="1" width="34" height="34" fill="#D9D9D9"/>
</mask>
<g mask="url(#mask0_21_5632)">
<path d="M17.2917 24.3752H18.7083V18.7086H24.375V17.2919H18.7083V11.6252H17.2917V17.2919H11.625V18.7086H17.2917V24.3752ZM18.0046 30.7502C16.2416 30.7502 14.5839 30.4157 13.0318 29.7465C11.4798 29.0774 10.1297 28.1693 8.9815 27.0223C7.83329 25.8753 6.92438 24.5264 6.25477 22.9756C5.58492 21.425 5.25 19.7681 5.25 18.0048C5.25 16.2418 5.58457 14.5842 6.25371 13.032C6.92285 11.48 7.83093 10.13 8.97796 8.98174C10.125 7.83354 11.4739 6.92463 13.0247 6.25501C14.5752 5.58517 16.2321 5.25024 17.9954 5.25024C19.7584 5.25024 21.4161 5.58481 22.9683 6.25395C24.5202 6.92309 25.8703 7.83118 27.0185 8.9782C28.1667 10.1252 29.0756 11.4741 29.7452 13.0249C30.4151 14.5755 30.75 16.2324 30.75 17.9956C30.75 19.7587 30.4154 21.4163 29.7463 22.9685C29.0772 24.5205 28.1691 25.8705 27.022 27.0187C25.875 28.167 24.5261 29.0759 22.9753 29.7455C21.4248 30.4153 19.7679 30.7502 18.0046 30.7502ZM18 29.3336C21.1639 29.3336 23.8438 28.2357 26.0396 26.0398C28.2354 23.844 29.3333 21.1641 29.3333 18.0002C29.3333 14.8364 28.2354 12.1565 26.0396 9.96066C23.8438 7.76483 21.1639 6.66691 18 6.66691C14.8361 6.66691 12.1563 7.76483 9.96042 9.96066C7.76458 12.1565 6.66667 14.8364 6.66667 18.0002C6.66667 21.1641 7.76458 23.844 9.96042 26.0398C12.1563 28.2357 14.8361 29.3336 18 29.3336Z" fill="#878A93"/>
</g>
</svg>

