<svg width="36" height="36" viewBox="0 0 36 36" fill="none" xmlns="http://www.w3.org/2000/svg">
<mask id="mask0_21_5630" style="mask-type:alpha" maskUnits="userSpaceOnUse" x="1" y="1" width="34" height="34">
<rect x="1" y="1" width="34" height="34" fill="#D9D9D9"/>
</mask>
<g mask="url(#mask0_21_5630)">
<path d="M18 30.7498C16.24 30.7498 14.5845 30.4142 13.0335 29.7432C11.4825 29.072 10.133 28.1625 8.98504 27.0147C7.83731 25.8667 6.92781 24.5173 6.25654 22.9662C5.58551 21.4152 5.25 19.7597 5.25 17.9998C5.25 16.2398 5.58551 14.5843 6.25654 13.0333C6.92781 11.4823 7.83731 10.1328 8.98504 8.9848C10.133 7.83706 11.4825 6.92756 13.0335 6.2563C14.5845 5.58527 16.24 5.24976 18 5.24976C19.76 5.24976 21.4155 5.58527 22.9665 6.2563C24.5175 6.92756 25.867 7.83706 27.015 8.9848C28.1627 10.1328 29.0722 11.4823 29.7435 13.0333C30.4145 14.5843 30.75 16.2398 30.75 17.9998V19.4001C30.75 20.5934 30.34 21.6028 29.52 22.4283C28.7 23.2537 27.6933 23.6664 26.5 23.6664C25.6554 23.6664 24.8854 23.4348 24.1898 22.9715C23.4942 22.5085 22.9802 21.8919 22.6477 21.1217C22.1082 21.8974 21.4348 22.5154 20.6276 22.9758C19.8203 23.4362 18.9444 23.6664 18 23.6664C16.4216 23.6664 15.0826 23.1165 13.983 22.0167C12.8832 20.9171 12.3333 19.5782 12.3333 17.9998C12.3333 16.4214 12.8832 15.0824 13.983 13.9828C15.0826 12.883 16.4216 12.3331 18 12.3331C19.5784 12.3331 20.9174 12.883 22.017 13.9828C23.1168 15.0824 23.6667 16.4214 23.6667 17.9998V19.4001C23.6667 20.1774 23.9446 20.8467 24.5004 21.4079C25.0562 21.9691 25.7227 22.2498 26.5 22.2498C27.2773 22.2498 27.9438 21.9691 28.4996 21.4079C29.0554 20.8467 29.3333 20.1774 29.3333 19.4001V17.9998C29.3333 14.8359 28.2354 12.156 26.0396 9.96017C23.8438 7.76434 21.1639 6.66642 18 6.66642C14.8361 6.66642 12.1563 7.76434 9.96042 9.96017C7.76458 12.156 6.66667 14.8359 6.66667 17.9998C6.66667 21.1636 7.76458 23.8435 9.96042 26.0393C12.1563 28.2352 14.8361 29.3331 18 29.3331H25.0833V30.7498H18ZM21.0104 21.0102C21.8368 20.1838 22.25 19.1803 22.25 17.9998C22.25 16.8192 21.8368 15.8157 21.0104 14.9893C20.184 14.163 19.1806 13.7498 18 13.7498C16.8194 13.7498 15.816 14.163 14.9896 14.9893C14.1632 15.8157 13.75 16.8192 13.75 17.9998C13.75 19.1803 14.1632 20.1838 14.9896 21.0102C15.816 21.8366 16.8194 22.2498 18 22.2498C19.1806 22.2498 20.184 21.8366 21.0104 21.0102Z" fill="#878A93"/>
</g>
</svg>
