<svg width="36" height="36" viewBox="0 0 36 36" fill="none" xmlns="http://www.w3.org/2000/svg">
<mask id="mask0_21_5634" style="mask-type:alpha" maskUnits="userSpaceOnUse" x="1" y="1" width="34" height="34">
<rect x="1" y="1" width="34" height="34" fill="#D9D9D9"/>
</mask>
<g mask="url(#mask0_21_5634)">
<path d="M8.95659 29.3332C8.30445 29.3332 7.75998 29.1148 7.32318 28.678C6.88637 28.2412 6.66797 27.6967 6.66797 27.0445V8.95513C6.66797 8.30299 6.88637 7.75852 7.32318 7.32171C7.75998 6.88491 8.30445 6.6665 8.95659 6.6665H27.046C27.6982 6.6665 28.2426 6.88491 28.6794 7.32171C29.1162 7.75852 29.3346 8.30299 29.3346 8.95513V27.0445C29.3346 27.6967 29.1162 28.2412 28.6794 28.678C28.2426 29.1148 27.6982 29.3332 27.046 29.3332H8.95659ZM8.95659 27.9165H27.046C27.2642 27.9165 27.464 27.8257 27.6456 27.6442C27.8272 27.4626 27.918 27.2627 27.918 27.0445V8.95513C27.918 8.73696 27.8272 8.53709 27.6456 8.35553C27.464 8.17396 27.2642 8.08317 27.046 8.08317H8.95659C8.73843 8.08317 8.53856 8.17396 8.35699 8.35553C8.17542 8.53709 8.08464 8.73696 8.08464 8.95513V27.0445C8.08464 27.2627 8.17542 27.4626 8.35699 27.6442C8.53856 27.8257 8.73843 27.9165 8.95659 27.9165ZM11.6263 24.3748H24.5941L20.5896 19.0351L16.8843 23.721L14.4051 20.7241L11.6263 24.3748ZM14.0442 14.0427C14.3212 13.7658 14.4596 13.432 14.4596 13.0415C14.4596 12.651 14.3212 12.3172 14.0442 12.0403C13.7672 11.7633 13.4335 11.6248 13.043 11.6248C12.6524 11.6248 12.3187 11.7633 12.0417 12.0403C11.7648 12.3172 11.6263 12.651 11.6263 13.0415C11.6263 13.432 11.7648 13.7658 12.0417 14.0427C12.3187 14.3197 12.6524 14.4582 13.043 14.4582C13.4335 14.4582 13.7672 14.3197 14.0442 14.0427Z" fill="#878A93"/>
</g>
</svg>
