<svg width="36" height="36" viewBox="0 0 36 36" fill="none" xmlns="http://www.w3.org/2000/svg">
<mask id="mask0_21_5629" style="mask-type:alpha" maskUnits="userSpaceOnUse" x="1" y="1" width="34" height="34">
<rect x="1" y="1" width="34" height="34" fill="#D9D9D9"/>
</mask>
<g mask="url(#mask0_21_5629)">
<path d="M18.0046 30.75C16.2416 30.75 14.5839 30.4154 13.0318 29.7463C11.4798 29.0772 10.1297 28.1691 8.9815 27.022C7.83329 25.875 6.92438 24.5261 6.25477 22.9753C5.58492 21.4248 5.25 19.7679 5.25 18.0046C5.25 16.2416 5.58469 14.5839 6.25406 13.0317C6.92344 11.4798 7.83188 10.1297 8.97938 8.9815C10.1269 7.83329 11.4763 6.92438 13.0275 6.25477C14.5788 5.58492 16.2363 5.25 18 5.25C18.9426 5.25 19.8589 5.34586 20.749 5.53758C21.6389 5.72907 22.4843 6.0137 23.2852 6.39148V7.97177C22.4952 7.55385 21.6574 7.23192 20.7717 7.00596C19.8861 6.77976 18.9622 6.66667 18 6.66667C14.8597 6.66667 12.1858 7.77049 9.97813 9.97813C7.77049 12.1858 6.66667 14.8597 6.66667 18C6.66667 21.1403 7.77049 23.8142 9.97813 26.0219C12.1858 28.2295 14.8597 29.3333 18 29.3333C21.1403 29.3333 23.8142 28.2295 26.0219 26.0219C28.2295 23.8142 29.3333 21.1403 29.3333 18C29.3333 17.3172 29.2748 16.6533 29.1577 16.0085C29.0406 15.3637 28.8703 14.738 28.647 14.1314H30.167C30.3614 14.7434 30.507 15.3683 30.6041 16.006C30.7014 16.6435 30.75 17.3082 30.75 18C30.75 19.7638 30.4154 21.4213 29.7463 22.9725C29.0772 24.5238 28.1691 25.8731 27.022 27.0206C25.875 28.1681 24.5261 29.0766 22.9753 29.7459C21.4248 30.4153 19.7679 30.75 18.0046 30.75ZM30.0417 10.2083V7.375H27.2083V5.95833H30.0417V3.125H31.4583V5.95833H34.2917V7.375H31.4583V10.2083H30.0417ZM22.6924 16.0386C23.1329 16.0386 23.5054 15.8843 23.8098 15.5757C24.1139 15.2671 24.2659 14.8925 24.2659 14.452C24.2659 14.0111 24.1117 13.6387 23.8034 13.3346C23.4948 13.0302 23.1202 12.878 22.6796 12.878C22.2388 12.878 21.8663 13.0323 21.5622 13.3409C21.2579 13.6495 21.1057 14.0241 21.1057 14.4647C21.1057 14.9055 21.26 15.278 21.5686 15.5821C21.8769 15.8865 22.2515 16.0386 22.6924 16.0386ZM13.3204 16.0386C13.7612 16.0386 14.1337 15.8843 14.4378 15.5757C14.7421 15.2671 14.8943 14.8925 14.8943 14.452C14.8943 14.0111 14.74 13.6387 14.4314 13.3346C14.1231 13.0302 13.7485 12.878 13.3076 12.878C12.8671 12.878 12.4946 13.0323 12.1903 13.3409C11.8861 13.6495 11.7341 14.0241 11.7341 14.4647C11.7341 14.9055 11.8883 15.278 12.1966 15.5821C12.5052 15.8865 12.8798 16.0386 13.3204 16.0386ZM21.7474 23.8016C22.8763 23.056 23.7268 22.0665 24.2989 20.8333H11.7011C12.2732 22.0665 13.1237 23.056 14.2526 23.8016C15.3814 24.547 16.6306 24.9197 18 24.9197C19.3694 24.9197 20.6186 24.547 21.7474 23.8016Z" fill="#878A93"/>
</g>
</svg>
